<svg width="100%" height="100%" viewBox="0 0 63 60" fill="none" xmlns="http://www.w3.org/2000/svg"><path d="M2 2H12.6667L19.8133 37.7067C20.0572 38.9344 20.7251 40.0372 21.7001 40.8221C22.6752 41.607 23.8952 42.024 25.1467 42H51.0667C52.3181 42.024 53.5382 41.607 54.5132 40.8221C55.4883 40.0372 56.1562 38.9344 56.4 37.7067L60.6667 15.3333H15.3333M26 55.3333C26 56.8061 24.8061 58 23.3333 58C21.8606 58 20.6667 56.8061 20.6667 55.3333C20.6667 53.8606 21.8606 52.6667 23.3333 52.6667C24.8061 52.6667 26 53.8606 26 55.3333ZM55.3333 55.3333C55.3333 56.8061 54.1394 58 52.6667 58C51.1939 58 50 56.8061 50 55.3333C50 53.8606 51.1939 52.6667 52.6667 52.6667C54.1394 52.6667 55.3333 53.8606 55.3333 55.3333Z" stroke="white" stroke-width="4" stroke-linecap="round" stroke-linejoin="round"/></svg>