<?xml version="1.0" encoding="UTF-8" standalone="no"?>
<!DOCTYPE svg PUBLIC "-//W3C//DTD SVG 1.1//EN" "http://www.w3.org/Graphics/SVG/1.1/DTD/svg11.dtd">
<svg width="100%" height="100%" viewBox="0 0 40 40" version="1.1" xmlns="http://www.w3.org/2000/svg" xmlns:xlink="http://www.w3.org/1999/xlink" xml:space="preserve" xmlns:serif="http://www.serif.com/" style="fill-rule:evenodd;clip-rule:evenodd;stroke-linejoin:round;stroke-miterlimit:1.41421;">
    <g transform="matrix(1,0,0,1,-4,-4)">
        <rect x="0" y="0" width="48" height="48" style="fill:none;"/>
    </g>
    <g transform="matrix(1,0,0,1,-4,-4)">
        <path d="M24,11.38L34,20.38L34,36L30,36L30,24L18,24L18,36L14,36L14,20.38L24,11.38M24,6L4,24L10,24L10,40L22,40L22,28L26,28L26,40L38,40L38,24L44,24L24,6Z" style="fill-rule:nonzero;"/>
    </g>
</svg>
