<svg width="23" height="21" viewBox="0 0 23 21" fill="none" xmlns="http://www.w3.org/2000/svg">
<path d="M9.69929 11.9595C9.93778 11.9595 10.1313 12.153 10.1313 12.3915C10.1313 12.63 9.93778 12.8236 9.69929 12.8236C9.46079 12.8236 9.26723 12.63 9.26723 12.3915C9.26723 12.153 9.46079 11.9595 9.69929 11.9595Z" fill="#BBBBBB"/>
<path d="M5.84448 14.2858C6.2495 13.881 7.2317 12.7853 8.00656 11.0085C8.58275 9.62602 9.92262 8.73291 11.421 8.73291C12.9192 8.73291 14.2588 9.62615 14.8351 11.009C15.8073 13.2387 17.1353 14.4186 17.1481 14.4298C17.1496 14.4311 17.1512 14.4325 17.1527 14.4338C17.936 15.1352 18.3853 16.1399 18.3853 17.1903C18.3853 18.4744 17.7738 19.5912 16.713 20.2988C15.7246 20.9582 14.4996 21.1559 13.3522 20.8413C12.7772 20.6838 12.1117 20.6005 11.4275 20.6005C10.7318 20.6005 10.0564 20.6866 9.47448 20.8494C8.36085 21.1611 7.1385 20.9902 6.12943 20.3234C5.05645 19.6145 4.43437 18.4872 4.43437 17.1903C4.43437 16.0497 4.94791 14.9927 5.84448 14.2858ZM6.6059 19.6025C7.38461 20.117 8.34529 20.2681 9.24169 20.0172C9.89846 19.8335 10.6543 19.7364 11.4277 19.7364C12.1879 19.7364 12.9324 19.8303 13.5808 20.008C14.4866 20.2564 15.4535 20.1003 16.2335 19.58C17.048 19.0366 17.5213 18.1873 17.5213 17.1903C17.5213 16.386 17.1775 15.6167 16.5781 15.0791C16.4859 14.9983 15.0838 13.743 14.0417 11.3509C14.0407 11.3486 14.0397 11.3464 14.0388 11.3441C13.5978 10.2828 12.5703 9.59703 11.4212 9.59703C10.2717 9.59699 9.24402 10.2826 8.8031 11.3437C8.8022 11.3459 8.8012 11.3482 8.80025 11.3504C7.95402 13.2925 6.86445 14.4915 6.43532 14.9169C6.42297 14.9291 6.40992 14.9406 6.39627 14.9512C5.69866 15.4932 5.29862 16.3093 5.29862 17.1903C5.29853 18.1956 5.7795 19.0565 6.6059 19.6025Z" fill="#BBBBBB"/>
<path d="M8.52245 13.6793C8.65268 13.4793 8.92029 13.4227 9.1203 13.553C9.3203 13.6833 9.37681 13.9509 9.24659 14.1509C8.58912 15.1603 7.96574 15.8326 7.65259 16.1435C7.48331 16.3115 7.20972 16.3106 7.04152 16.1413C6.87341 15.9719 6.8744 15.6984 7.04373 15.5302C7.33252 15.2435 7.90863 14.6218 8.52245 13.6793Z" fill="#BBBBBB"/>
<path d="M12.8279 6.62638C12.4127 5.90074 12.2396 4.93694 12.353 3.98239C12.5723 2.12397 13.854 0.567124 15.286 0.739084C15.9326 0.815602 16.5075 1.24006 16.9051 1.93425C17.32 2.65933 17.4931 3.62313 17.3799 4.57837C17.0217 7.61338 14.1963 9.01685 12.8279 6.62638ZM16.1551 2.3635C15.9186 1.95032 15.5496 1.59102 15.0741 1.59102C14.2237 1.59102 13.3706 2.73248 13.2111 4.08397C13.119 4.85878 13.2527 5.62901 13.5778 6.19717C14.5736 7.93682 16.2865 6.47015 16.5218 4.47693C16.6136 3.70151 16.4799 2.93119 16.1551 2.3635Z" fill="#BBBBBB"/>
<path d="M16.9664 11.2732C16.8413 10.5032 16.9933 9.65152 17.3944 8.87516C17.7956 8.09861 18.4023 7.48176 19.1028 7.13819C19.8468 6.77327 20.6087 6.75443 21.2481 7.08509C21.8876 7.41548 22.3128 8.04772 22.4456 8.86548C22.5707 9.63558 22.4187 10.4872 22.0176 11.2636C21.6164 12.04 21.0097 12.6567 20.3092 13.0003C19.614 13.3412 18.8438 13.405 18.164 13.0537C17.5245 12.7233 17.0992 12.091 16.9664 11.2732ZM18.5606 12.286C18.9508 12.4877 19.4366 12.4658 19.9286 12.2244C20.464 11.9619 20.9332 11.4797 21.2499 10.8669C21.5665 10.254 21.6882 9.59251 21.5927 9.004C21.5048 8.46314 21.2415 8.05437 20.8513 7.85277C20.8513 7.85273 20.8513 7.85273 20.8512 7.85268C20.4198 7.62961 19.92 7.69978 19.4833 7.91399C18.948 8.17656 18.4788 8.65878 18.1621 9.27179C17.8455 9.88467 17.7237 10.5463 17.8193 11.1347C17.9071 11.6756 18.1704 12.0844 18.5606 12.286Z" fill="#BBBBBB"/>
<path d="M8.18709 7.84257C6.8773 7.84257 5.68166 6.41254 5.46515 4.58687C5.23508 2.64199 6.215 0.735352 7.77149 0.735352C9.0815 0.735352 10.277 2.16543 10.493 3.99106C10.7233 5.93948 9.74052 7.84257 8.18709 7.84257ZM9.63484 4.09255C9.47489 2.74115 8.62157 1.59943 7.77141 1.59943C7.7314 1.59943 7.69692 1.60137 7.66603 1.60539C7.20532 1.65659 6.8487 2.05923 6.63863 2.47033C6.35287 3.02946 6.23794 3.76388 6.32323 4.4852C6.48927 5.88525 7.41725 7.08608 8.29243 6.97249C8.29403 6.97232 8.29562 6.9721 8.29722 6.97189C8.6901 6.92565 9.06275 6.61068 9.31956 6.10776C9.60524 5.54859 9.72013 4.81409 9.63484 4.09255Z" fill="#BBBBBB"/>
<path d="M0.409378 8.86735C0.682613 7.18465 2.20372 6.38024 3.75218 7.14006C5.20084 7.85071 6.1474 9.68135 5.88855 11.2751C5.61207 12.9778 4.0758 13.7527 2.54579 13.0022C1.0967 12.2914 0.150574 10.461 0.409378 8.86735ZM2.92635 12.2263C3.41838 12.4676 3.90418 12.4894 4.29438 12.2879V12.2879C4.68457 12.0863 4.94787 11.6774 5.03566 11.1366C5.2332 9.92011 4.48098 8.46013 3.37163 7.91578C2.35499 7.41705 1.44408 7.88662 1.26231 9.00582C1.06512 10.2201 1.81496 11.6812 2.92635 12.2263Z" fill="#BBBBBB"/>
</svg>
