<svg width="100%" height="100%" viewBox="0 0 60 60" fill="none" xmlns="http://www.w3.org/2000/svg"><path d="M52.4 30V58H7.6V30M30 58V16M30 16H17.4C15.5435 16 13.763 15.2625 12.4503 13.9497C11.1375 12.637 10.4 10.8565 10.4 9C10.4 7.14348 11.1375 5.36301 12.4503 4.05025C13.763 2.7375 15.5435 2 17.4 2C27.2 2 30 16 30 16ZM30 16H42.6C44.4565 16 46.237 15.2625 47.5497 13.9497C48.8625 12.637 49.6 10.8565 49.6 9C49.6 7.14348 48.8625 5.36301 47.5497 4.05025C46.237 2.7375 44.4565 2 42.6 2C32.8 2 30 16 30 16ZM2 16H58V30H2V16Z" stroke="white" stroke-width="4" stroke-linecap="round" stroke-linejoin="round"/></svg>