<svg width="20" height="22" viewBox="0 0 20 22" fill="none" xmlns="http://www.w3.org/2000/svg">
<path fill-rule="evenodd" clip-rule="evenodd" d="M9.62642 0C9.87959 0 10.0848 0.205233 10.0848 0.458401V2.76569C11.741 2.87628 13.3075 3.58332 14.4885 4.76434C15.778 6.05385 16.5024 7.80279 16.5024 9.62642V14.2104C16.5024 14.8183 16.7439 15.4013 17.1737 15.8311C17.6036 16.261 18.1866 16.5024 18.7944 16.5024C19.0476 16.5024 19.2528 16.7077 19.2528 16.9608C19.2528 17.214 19.0476 17.4192 18.7944 17.4192H0.458401C0.205233 17.4192 0 17.214 0 16.9608C0 16.7077 0.205233 16.5024 0.458401 16.5024C1.06628 16.5024 1.64926 16.261 2.07909 15.8311C2.50893 15.4013 2.75041 14.8183 2.75041 14.2104V9.62642C2.75041 7.80279 3.47484 6.05385 4.76434 4.76434C5.94537 3.58332 7.5118 2.87628 9.16802 2.76569V0.458401C9.16802 0.205233 9.37325 0 9.62642 0ZM2.7041 16.5024H16.5487C16.541 16.4948 16.5332 16.4871 16.5255 16.4794C15.9237 15.8776 15.5856 15.0615 15.5856 14.2104V9.62642C15.5856 8.04594 14.9578 6.53019 13.8402 5.41262C12.7227 4.29505 11.2069 3.66721 9.62642 3.66721C8.04594 3.66721 6.53019 4.29505 5.41262 5.41262C4.29505 6.53019 3.66721 8.04594 3.66721 9.62642V14.2104C3.66721 15.0615 3.32914 15.8776 2.72737 16.4794C2.71965 16.4871 2.71189 16.4948 2.7041 16.5024ZM7.81034 20.2315C8.02933 20.1045 8.30984 20.179 8.43687 20.398C8.55776 20.6064 8.73127 20.7794 8.94004 20.8997C9.14881 21.0199 9.3855 21.0832 9.62642 21.0832C9.86734 21.0832 10.104 21.0199 10.3128 20.8997C10.5216 20.7794 10.6951 20.6064 10.816 20.398C10.943 20.179 11.2235 20.1045 11.4425 20.2315C11.6615 20.3586 11.736 20.6391 11.609 20.8581C11.4075 21.2054 11.1183 21.4937 10.7704 21.6941C10.4224 21.8945 10.028 22 9.62642 22C9.22489 22 8.8304 21.8945 8.48245 21.6941C8.13451 21.4937 7.84532 21.2054 7.64384 20.8581C7.5168 20.6391 7.59135 20.3586 7.81034 20.2315Z" fill="#313E56"/>
</svg>
