<svg width="18" height="18" viewBox="0 0 18 18" fill="none" xmlns="http://www.w3.org/2000/svg">
<path fill-rule="evenodd" clip-rule="evenodd" d="M12.2321 1.74631C10.6679 1.04934 8.92026 0.87668 7.24991 1.25407C5.57956 1.63147 4.07596 2.5387 2.96334 3.84046C1.85072 5.14222 1.18871 6.76876 1.07604 8.4775C0.963364 10.1862 1.40607 11.8856 2.33812 13.3222C3.27017 14.7588 4.64163 15.8556 6.24796 16.4491C7.85429 17.0425 9.60943 17.1008 11.2516 16.6153C12.8938 16.1297 14.335 15.1264 15.3603 13.7548C16.3857 12.3833 16.9402 10.717 16.9412 9.00454V8.22555C16.9412 7.93317 17.1782 7.69614 17.4706 7.69614C17.763 7.69614 18 7.93317 18 8.22555V9.00485C17.9989 10.9456 17.3704 12.8344 16.2084 14.3888C15.0463 15.9432 13.413 17.0804 11.5518 17.6307C9.69068 18.1809 7.70153 18.1149 5.88102 17.4423C4.06051 16.7697 2.50619 15.5266 1.44986 13.8985C0.39354 12.2704 -0.108188 10.3444 0.0195091 8.40783C0.147206 6.47126 0.897486 4.62784 2.15845 3.15252C3.41942 1.67719 5.12351 0.648995 7.01657 0.221283C8.90963 -0.20643 10.8902 -0.0107454 12.663 0.779152C12.9301 0.898153 13.0501 1.21113 12.9311 1.4782C12.8121 1.74528 12.4991 1.86531 12.2321 1.74631ZM17.8447 1.85385C18.0516 2.0605 18.0518 2.3957 17.8451 2.60255L9.37453 11.0816C9.27527 11.181 9.14058 11.2368 9.00013 11.2369C8.85967 11.2369 8.72496 11.1811 8.62565 11.0818L6.08447 8.54062C5.87772 8.33387 5.87772 7.99867 6.08447 7.79192C6.29122 7.58517 6.62642 7.58517 6.83317 7.79192L8.99981 9.95856L17.096 1.85423C17.3027 1.64737 17.6379 1.64721 17.8447 1.85385Z" fill="#8896FF"/>
</svg>
