<svg width="24" height="26" viewBox="0 0 24 26" fill="none" xmlns="http://www.w3.org/2000/svg">
<path fill-rule="evenodd" clip-rule="evenodd" d="M19.1227 1.36756C17.432 1.36756 16.0614 2.73811 16.0614 4.42878C16.0614 4.97137 16.2026 5.48098 16.4502 5.92291C16.4607 5.93774 16.4707 5.95316 16.48 5.96917C16.4893 5.98504 16.4977 6.00116 16.5054 6.01747C17.0425 6.90035 18.0137 7.49001 19.1227 7.49001C20.8133 7.49001 22.1839 6.11945 22.1839 4.42878C22.1839 2.73811 20.8133 1.36756 19.1227 1.36756ZM15.7666 7.09439C16.5517 8.0816 17.7633 8.71449 19.1227 8.71449C21.4896 8.71449 23.4084 6.79572 23.4084 4.42878C23.4084 2.06185 21.4896 0.143066 19.1227 0.143066C16.7557 0.143066 14.8369 2.06185 14.8369 4.42878C14.8369 4.99756 14.9477 5.54047 15.1489 6.03708L7.78486 10.3346C6.99971 9.34739 5.78816 8.71449 4.42878 8.71449C2.06185 8.71449 0.143066 10.6333 0.143066 13.0002C0.143066 15.3671 2.06185 17.2859 4.42878 17.2859C5.78829 17.2859 6.99995 16.6529 7.78509 15.6655L15.1511 19.9579C14.9486 20.456 14.8369 21.0008 14.8369 21.5716C14.8369 23.9386 16.7557 25.8574 19.1227 25.8574C21.4896 25.8574 23.4084 23.9386 23.4084 21.5716C23.4084 19.2047 21.4896 17.2859 19.1227 17.2859C17.7654 17.2859 16.5555 17.9169 15.7702 18.9014L8.40264 14.6082C8.60374 14.1116 8.71449 13.5689 8.71449 13.0002C8.71449 12.4314 8.60369 11.8885 8.4025 11.3919L15.7666 7.09439ZM7.04601 11.4115C7.05369 11.4278 7.06216 11.4439 7.07142 11.4598C7.08076 11.4758 7.09072 11.4913 7.10124 11.5061C7.34884 11.948 7.49 12.4576 7.49 13.0002C7.49 13.5428 7.34884 14.0524 7.10123 14.4944C7.09064 14.5093 7.08062 14.5248 7.07122 14.5409C7.06204 14.5567 7.05363 14.5727 7.046 14.5889C6.50893 15.4718 5.53772 16.0614 4.42878 16.0614C2.73811 16.0614 1.36756 14.6909 1.36756 13.0002C1.36756 11.3095 2.73811 9.93898 4.42878 9.93898C5.53772 9.93898 6.50894 10.5286 7.04601 11.4115ZM16.4226 20.1278C16.4485 20.0984 16.472 20.0661 16.4925 20.0309C16.5124 19.9967 16.5286 19.9614 16.5413 19.9255C17.085 19.0746 18.038 18.5104 19.1227 18.5104C20.8133 18.5104 22.1839 19.881 22.1839 21.5716C22.1839 23.2623 20.8133 24.6329 19.1227 24.6329C17.432 24.6329 16.0614 23.2623 16.0614 21.5716C16.0614 21.0495 16.1921 20.558 16.4226 20.1278Z" fill="white"/>
</svg>
