<?xml version="1.0" encoding="UTF-8" standalone="no"?>
<!DOCTYPE svg PUBLIC "-//W3C//DTD SVG 1.1//EN" "http://www.w3.org/Graphics/SVG/1.1/DTD/svg11.dtd">
<svg width="100%" height="100%" viewBox="0 0 23 21" version="1.1" xmlns="http://www.w3.org/2000/svg" xmlns:xlink="http://www.w3.org/1999/xlink" xml:space="preserve" xmlns:serif="http://www.serif.com/" style="fill-rule:evenodd;clip-rule:evenodd;stroke-linejoin:round;stroke-miterlimit:1.41421;">
    <path d="M9.699,11.96C9.938,11.96 10.131,12.153 10.131,12.392C10.131,12.63 9.938,12.824 9.699,12.824C9.461,12.824 9.267,12.63 9.267,12.392C9.267,12.153 9.461,11.96 9.699,11.96Z" style="fill:rgb(214,214,214);fill-opacity:0.415686;fill-rule:nonzero;"/>
    <path d="M5.844,14.286C6.25,13.881 7.232,12.785 8.007,11.009C8.583,9.626 9.923,8.733 11.421,8.733C12.919,8.733 14.259,9.626 14.835,11.009C15.807,13.239 17.135,14.419 17.148,14.43C17.15,14.431 17.151,14.432 17.153,14.434C17.936,15.135 18.385,16.14 18.385,17.19C18.385,18.474 17.774,19.591 16.713,20.299C15.725,20.958 14.5,21.156 13.352,20.841C12.777,20.684 12.112,20.601 11.428,20.601C10.732,20.601 10.056,20.687 9.474,20.849C8.361,21.161 7.138,20.99 6.129,20.323C5.056,19.615 4.434,18.487 4.434,17.19C4.434,16.05 4.948,14.993 5.844,14.286ZM6.606,19.603C7.385,20.117 8.345,20.268 9.242,20.017C9.898,19.834 10.654,19.736 11.428,19.736C12.188,19.736 12.932,19.83 13.581,20.008C14.487,20.256 15.454,20.1 16.233,19.58C17.048,19.037 17.521,18.187 17.521,17.19C17.521,16.386 17.177,15.617 16.578,15.079C16.486,14.998 15.084,13.743 14.042,11.351C14.041,11.349 14.04,11.346 14.039,11.344C13.598,10.283 12.57,9.597 11.421,9.597C10.272,9.597 9.244,10.283 8.803,11.344C8.802,11.346 8.801,11.348 8.8,11.35C7.954,13.293 6.864,14.492 6.435,14.917C6.423,14.929 6.41,14.941 6.396,14.951C5.699,15.493 5.299,16.309 5.299,17.19C5.299,18.196 5.779,19.057 6.606,19.603Z" style="fill:rgb(214,214,214);fill-opacity:0.415686;fill-rule:nonzero;"/>
    <path d="M8.522,13.679C8.653,13.479 8.92,13.423 9.12,13.553C9.32,13.683 9.377,13.951 9.247,14.151C8.589,15.16 7.966,15.833 7.653,16.144C7.483,16.311 7.21,16.311 7.042,16.141C6.873,15.972 6.874,15.698 7.044,15.53C7.333,15.243 7.909,14.622 8.522,13.679Z" style="fill:rgb(214,214,214);fill-opacity:0.415686;fill-rule:nonzero;"/>
    <path d="M12.828,6.626C12.413,5.901 12.24,4.937 12.353,3.982C12.572,2.124 13.854,0.567 15.286,0.739C15.933,0.816 16.508,1.24 16.905,1.934C17.32,2.659 17.493,3.623 17.38,4.578C17.022,7.613 14.196,9.017 12.828,6.626ZM16.155,2.364C15.919,1.95 15.55,1.591 15.074,1.591C14.224,1.591 13.371,2.732 13.211,4.084C13.119,4.859 13.253,5.629 13.578,6.197C14.574,7.937 16.287,6.47 16.522,4.477C16.614,3.702 16.48,2.931 16.155,2.364Z" style="fill:rgb(214,214,214);fill-opacity:0.415686;fill-rule:nonzero;"/>
    <path d="M16.966,11.273C16.841,10.503 16.993,9.652 17.394,8.875C17.796,8.099 18.402,7.482 19.103,7.138C19.847,6.773 20.609,6.754 21.248,7.085C21.888,7.415 22.313,8.048 22.446,8.865C22.571,9.636 22.419,10.487 22.018,11.264C21.616,12.04 21.01,12.657 20.309,13C19.614,13.341 18.844,13.405 18.164,13.054C17.525,12.723 17.099,12.091 16.966,11.273ZM18.561,12.286C18.951,12.488 19.437,12.466 19.929,12.224C20.464,11.962 20.933,11.48 21.25,10.867C21.567,10.254 21.688,9.593 21.593,9.004C21.505,8.463 21.241,8.054 20.851,7.853C20.851,7.853 20.851,7.853 20.851,7.853C20.42,7.63 19.92,7.7 19.483,7.914C18.948,8.177 18.479,8.659 18.162,9.272C17.846,9.885 17.724,10.546 17.819,11.135C17.907,11.676 18.17,12.084 18.561,12.286Z" style="fill:rgb(214,214,214);fill-opacity:0.415686;fill-rule:nonzero;"/>
    <path d="M8.187,7.843C6.877,7.843 5.682,6.413 5.465,4.587C5.235,2.642 6.215,0.735 7.771,0.735C9.082,0.735 10.277,2.165 10.493,3.991C10.723,5.939 9.741,7.843 8.187,7.843ZM9.635,4.093C9.475,2.741 8.622,1.599 7.771,1.599C7.731,1.599 7.697,1.601 7.666,1.605C7.205,1.657 6.849,2.059 6.639,2.47C6.353,3.029 6.238,3.764 6.323,4.485C6.489,5.885 7.417,7.086 8.292,6.972C8.294,6.972 8.296,6.972 8.297,6.972C8.69,6.926 9.063,6.611 9.32,6.108C9.605,5.549 9.72,4.814 9.635,4.093Z" style="fill:rgb(214,214,214);fill-opacity:0.415686;fill-rule:nonzero;"/>
    <path d="M0.409,8.867C0.683,7.185 2.204,6.38 3.752,7.14C5.201,7.851 6.147,9.681 5.889,11.275C5.612,12.978 4.076,13.753 2.546,13.002C1.097,12.291 0.151,10.461 0.409,8.867ZM2.926,12.226C3.418,12.468 3.904,12.489 4.294,12.288C4.685,12.086 4.948,11.677 5.036,11.137C5.233,9.92 4.481,8.46 3.372,7.916C2.355,7.417 1.444,7.887 1.262,9.006C1.065,10.22 1.815,11.681 2.926,12.226Z" style="fill:rgb(214,214,214);fill-opacity:0.415686;fill-rule:nonzero;"/>
</svg>
