<svg width="100%" height="100%" viewBox="0 0 21 23" fill="none" xmlns="http://www.w3.org/2000/svg">
<path fill-rule="evenodd" clip-rule="evenodd" d="M8.48578 1.71439C8.09175 1.71439 7.71385 1.87092 7.43523 2.14955C7.1566 2.42817 7.00007 2.80607 7.00007 3.2001V4.68582H14.0858V3.2001C14.0858 2.80607 13.9293 2.42817 13.6506 2.14955C13.372 1.87092 12.9941 1.71439 12.6001 1.71439H8.48578ZM15.2286 4.68582V3.2001C15.2286 2.50296 14.9517 1.83438 14.4587 1.34142C13.9658 0.848471 13.2972 0.571533 12.6001 0.571533H8.48578C7.78864 0.571533 7.12006 0.848471 6.6271 1.34142C6.13415 1.83438 5.85721 2.50296 5.85721 3.2001V4.68582H1.28578C0.970193 4.68582 0.714355 4.94166 0.714355 5.25725C0.714355 5.57284 0.970193 5.82868 1.28578 5.82868H2.7715V19.6572C2.7715 20.3544 3.04844 21.023 3.54139 21.5159C4.03434 22.0089 4.70293 22.2858 5.40007 22.2858H15.6858C16.3829 22.2858 17.0515 22.0089 17.5445 21.5159C18.0374 21.023 18.3144 20.3544 18.3144 19.6572V5.82868H19.8001C20.1157 5.82868 20.3715 5.57284 20.3715 5.25725C20.3715 4.94166 20.1157 4.68582 19.8001 4.68582H15.2286ZM3.91436 5.82868V19.6572C3.91436 20.0513 4.07089 20.4292 4.34951 20.7078C4.62814 20.9864 5.00603 21.143 5.40007 21.143H15.6858C16.0798 21.143 16.4577 20.9864 16.7363 20.7078C17.015 20.4292 17.1715 20.0513 17.1715 19.6572V5.82868H3.91436ZM8.48578 9.82868C8.80138 9.82868 9.05721 10.0845 9.05721 10.4001V16.5715C9.05721 16.8871 8.80138 17.143 8.48578 17.143C8.17019 17.143 7.91436 16.8871 7.91436 16.5715V10.4001C7.91436 10.0845 8.17019 9.82868 8.48578 9.82868ZM12.6001 9.82868C12.9157 9.82868 13.1715 10.0845 13.1715 10.4001V16.5715C13.1715 16.8871 12.9157 17.143 12.6001 17.143C12.2845 17.143 12.0286 16.8871 12.0286 16.5715V10.4001C12.0286 10.0845 12.2845 9.82868 12.6001 9.82868Z" fill="#FF442B"/>
</svg>
